HIERARCHY
ROOT Root
{
	OFFSET 0.00000 0.00000 0.00000
	CHANNELS 6 Xposition Yposition Zposition Zrotation Xrotation Yrotation
	JOINT Hips
	{
		OFFSET 0 0 0	
		CHANNELS 3 Zrotation Xrotation Yrotation
		JOINT Spine1
		{
			OFFSET 0 4 0	
			CHANNELS 3 Zrotation Xrotation Yrotation
			JOINT Spine2
			{
				OFFSET 0 19.4 0	
				CHANNELS 3 Zrotation Xrotation Yrotation
				JOINT Spine3
				{
					OFFSET 0 16.6 0	
					CHANNELS 3 Zrotation Xrotation Yrotation
					JOINT LeftCollar
					{
						OFFSET 0 10 0	
						CHANNELS 3 Zrotation Xrotation Yrotation
						JOINT LeftArm
						{
							OFFSET 15.6 -2 0	
							CHANNELS 3 Zrotation Xrotation Yrotation
							JOINT LeftForeArm
							{
								OFFSET 2.6 -25.5 0	
								CHANNELS 3 Zrotation Xrotation Yrotation
								JOINT LeftHand
								{
									OFFSET 0.65 -31.1 0	
									CHANNELS 3 Zrotation Xrotation Yrotation
									End Site
									{
										OFFSET 0 -15 0
									}
								}
							}
						}
					}
					JOINT RightCollar
					{
						OFFSET 0 10 0	
						CHANNELS 3 Zrotation Xrotation Yrotation
						JOINT RightArm
						{
							OFFSET -15.6 -2 0	
							CHANNELS 3 Zrotation Xrotation Yrotation
							JOINT RightForeArm
							{
								OFFSET -2.6 -25.5 0	
								CHANNELS 3 Zrotation Xrotation Yrotation
								JOINT RightHand
								{
									OFFSET -0.65 -31.1 0	
									CHANNELS 3 Zrotation Xrotation Yrotation
									End Site
									{
										OFFSET 0 -15 0
									}
								}
							}
						}
					}
					JOINT Neck
					{
						OFFSET 0 10 0	
						CHANNELS 3 Zrotation Xrotation Yrotation
						JOINT Head
						{
							OFFSET 0 12.7 0	
							CHANNELS 3 Zrotation Xrotation Yrotation
							End Site
							{
								OFFSET 0 12.7 1.56
							}
						}
					}
				}
			}
		}
	}
	JOINT LeftHip
	{
		OFFSET 0 0 0	
		CHANNELS 3 Zrotation Xrotation Yrotation
		JOINT LeftUpLeg
		{
			OFFSET 8.8 -2 0	
			CHANNELS 3 Zrotation Xrotation Yrotation
			JOINT LeftLeg
			{
				OFFSET 0 -42.2 0	
				CHANNELS 3 Zrotation Xrotation Yrotation
				JOINT LeftFoot
				{
					OFFSET 0 -44.3 0	
					CHANNELS 3 Zrotation Xrotation Yrotation
					JOINT LeftFootFront
					{
						OFFSET 0 -4 10.47	
						CHANNELS 3 Zrotation Xrotation Yrotation
						End Site
						{
							OFFSET 0 -3.45 9.31
						}
					}
				}
			}
		}
	}
	JOINT RightHip
	{
		OFFSET 0 0 0	
		CHANNELS 3 Zrotation Xrotation Yrotation
		JOINT RightUpLeg
		{
			OFFSET -8.8 -2 0	
			CHANNELS 3 Zrotation Xrotation Yrotation
			JOINT RightLeg
			{
				OFFSET 0 -42.2 0	
				CHANNELS 3 Zrotation Xrotation Yrotation
				JOINT RightFoot
				{
					OFFSET 0 -44.3 0	
					CHANNELS 3 Zrotation Xrotation Yrotation
					JOINT RightFootFront
					{
						OFFSET 0 -4 10.47	
						CHANNELS 3 Zrotation Xrotation Yrotation
						End Site
						{
							OFFSET 0 -3.45 9.31
						}
					}
				}
			}
		}
	}
}
MOTION
Frames: 17
Frame Time: 0.025
0 93.978 0 -0 0 -0 -3.5709 2.0443 -4.6889 -1.5793 -10.822 2.9765 -2.3126 -17.712 4.7717 -1.1613 -7.5671 2.108 -0 0 -0 130.72 -48.173 50.82 23.368 -13.47 23.321 -0 0 -0 -0 0 -0 -106.43 -29.278 -56.922 -4.3077 -15.852 -17.24 8.5377e-07 -2.5444e-14 -3.4151e-06 4.895 -4.2341 -3.8918 4.895 -4.2341 -3.8918 -3.5709 2.0443 -4.6889 32.139 -15.413 -2.9702 -91.572 49.552 107.35 -0 0 -0 -0 0 -0 -3.5709 2.0443 -4.6889 -23.635 -15.487 -14.625 94.768 70.866 -112.92 -0 0 -0 -0 0 -0 
0 94.121 0 -0 0 -0 -3.5161 2.0478 -4.7603 -1.4971 -10.753 2.9919 -2.1764 -17.598 4.8058 -1.1039 -7.5194 2.1171 -0 0 -0 131.1 -48.298 51.004 23.394 -12.164 22.691 -0 0 -0 -0 0 -0 -107.62 -29.371 -56.707 -4.0916 -14.505 -17.35 -8.5377e-07 0 0 4.6937 -4.5827 -3.7721 4.6937 -4.5827 -3.7721 -3.5161 2.0478 -4.7603 31.973 -15.302 -2.9089 -91.366 49.741 107.05 -0 0 -0 -0 0 -0 -3.5161 2.0478 -4.7603 -23.549 -15.463 -14.584 94.391 70.959 -112.59 -0 0 -0 -0 0 -0 
0 94.248 0 -0 0 -0 -3.4754 2.0167 -4.7631 -1.4505 -10.662 3.0206 -2.0986 -17.447 4.8582 -1.0716 -7.4555 2.136 -0 0 -0 131.55 -48.356 51.126 23.392 -11.012 22.146 -0 0 -0 -0 0 -0 -108.74 -29.348 -56.686 -3.8957 -13.113 -17.39 1.7075e-06 0 -0 4.5142 -4.9808 -3.7508 4.5142 -4.9808 -3.7508 -3.4754 2.0167 -4.7631 31.732 -15.236 -2.9598 -91.139 49.963 106.8 -0 0 -0 -0 0 -0 -3.4754 2.0167 -4.7631 -23.456 -15.413 -14.583 94.006 71.062 -112.16 -0 0 -0 -0 0 -0 
0 94.366 0 -0 0 -0 -3.4675 1.9782 -4.8254 -1.4336 -10.57 3.0605 -2.0688 -17.298 4.9261 -1.0601 -7.3915 2.1634 -0 0 -0 132.13 -48.263 50.972 23.316 -9.8556 21.982 8.5377e-07 0 -0 -0 0 -0 -109.63 -29.279 -56.78 -3.781 -11.792 -17.356 -1.7075e-06 0 0 4.4506 -5.409 -3.7893 4.4506 -5.409 -3.7893 -3.4675 1.9782 -4.8254 31.491 -15.151 -3.0739 -90.898 50.109 106.62 -0 0 -0 -0 0 -0 -3.4675 1.9782 -4.8254 -23.332 -15.379 -14.492 93.637 71.167 -111.68 -0 0 -0 -0 0 -0 
0 94.481 0 -0 0 -0 -3.4698 1.9938 -4.9462 -1.4174 -10.499 3.1361 -2.0363 -17.181 5.053 -1.0499 -7.3412 2.2158 -0 0 -0 132.82 -48.225 50.753 23.193 -8.5575 22.038 8.5377e-07 0 -0 -0 0 -0 -110.47 -29.115 -56.876 -3.671 -10.502 -17.375 -0 0 -0 4.4699 -5.8264 -3.8679 4.4699 -5.8264 -3.8679 -3.4698 1.9938 -4.9462 31.284 -15.068 -3.1734 -90.668 50.186 106.47 -0 0 -0 -0 0 -0 -3.4698 1.9938 -4.9462 -23.2 -15.407 -14.282 93.287 71.207 -111.26 -0 0 -0 -0 0 -0 
0 94.598 0 -0 0 -0 -3.4639 2.0252 -5.0156 -1.4217 -10.43 3.2318 -2.0357 -17.07 5.211 -1.0544 -7.2928 2.2825 -0 0 -0 133.43 -48.343 50.606 23.185 -7.3272 22.001 -0 0 -0 -0 0 -0 -111.26 -28.814 -56.791 -3.5317 -9.1943 -17.574 -0 0 -0 4.5414 -6.221 -3.9811 4.5414 -6.221 -3.9811 -3.4639 2.0252 -5.0156 31.067 -14.976 -3.3248 -90.442 50.242 106.28 -0 0 -0 -0 0 -0 -3.4639 2.0252 -5.0156 -23.104 -15.433 -14.103 93 71.227 -111.02 -0 0 -0 -0 0 -0 
0 94.748 0 -0 0 -0 -3.4608 2.0172 -5.0637 -1.4457 -10.35 3.2977 -2.0712 -16.941 5.3177 -1.072 -7.2368 2.3288 -0 0 -0 133.94 -48.407 50.416 23.256 -6.1957 21.877 -1.7075e-06 0 0 -0 0 -0 -111.96 -28.536 -56.417 -3.3959 -7.8513 -18.105 -0 0 -0 4.6559 -6.5904 -4.0497 4.6559 -6.5904 -4.0497 -3.4608 2.0172 -5.0637 30.872 -14.85 -3.4955 -90.308 50.303 106.14 -0 0 -0 -0 0 -0 -3.4608 2.0172 -5.0637 -23.022 -15.413 -14.012 92.783 71.335 -110.92 -0 0 -0 -0 0 -0 
0 94.945 0 -0 0 -0 -3.4537 1.9611 -5.1313 -1.4441 -10.252 3.313 -2.0697 -16.781 5.3432 -1.0706 -7.1679 2.3394 -0 0 -0 134.42 -48.266 50.082 23.242 -4.9314 21.863 -8.5377e-07 0 0 -0 0 -0 -112.79 -28.389 -55.881 -3.2612 -6.4338 -18.962 -0 0 -0 4.7452 -6.928 -4.0384 4.7452 -6.928 -4.0384 -3.4537 1.9611 -5.1313 30.756 -14.713 -3.5598 -90.397 50.42 106.18 -0 0 -0 -0 0 -0 -3.4537 1.9611 -5.1313 -22.918 -15.364 -13.919 92.633 71.495 -110.89 -0 0 -0 -0 0 -0 
0 95.14 0 -0 0 -0 -3.4306 1.9056 -5.1305 -1.4024 -10.118 3.304 -2.0053 -16.56 5.3324 -1.0406 -7.0742 2.3321 -0 0 -0 134.85 -47.982 49.673 23.218 -3.5069 21.983 -0 0 -0 -0 0 -0 -113.99 -28.302 -55.391 -3.1439 -4.8818 -19.871 1.7075e-06 0 -0 4.7437 -7.2621 -4.0507 4.7437 -7.2622 -4.0507 -3.4306 1.9056 -5.1305 30.691 -14.616 -3.5703 -90.658 50.586 106.37 -0 0 -0 -0 0 -0 -3.4306 1.9056 -5.1305 -22.832 -15.317 -13.872 92.635 71.65 -110.96 -0 0 -0 -0 0 -0 
0 95.281 0 -0 0 -0 -3.4138 1.9136 -5.072 -1.387 -9.958 3.3203 -1.9827 -16.299 5.3609 -1.0292 -6.9625 2.3431 -0 0 -0 135.49 -47.701 49.494 23.275 -2.066 22.017 -1.7075e-06 0 0 -0 0 -0 -115.17 -28.065 -54.954 -3.1193 -3.355 -20.457 -1.7075e-06 0 0 4.734 -7.6317 -4.2056 4.734 -7.6317 -4.2056 -3.4138 1.9136 -5.072 30.648 -14.574 -3.6396 -90.909 50.675 106.52 -0 0 -0 -0 0 -0 -3.4138 1.9136 -5.072 -22.791 -15.329 -13.965 92.892 71.871 -111.18 -0 0 -0 -0 0 -0 
0 95.436 0 -0 0 -0 -3.4134 1.9825 -5.1137 -1.4169 -9.8096 3.3347 -2.0348 -16.058 5.3819 -1.0495 -6.8584 2.3534 -0 0 -0 136.36 -47.342 49.4 23.362 -0.65733 21.937 -1.7075e-06 0 0 -0 0 -0 -115.92 -27.703 -54.358 -3.1562 -2.0944 -20.921 -0 0 -0 4.8163 -8.0188 -4.3748 4.8163 -8.0187 -4.3748 -3.4134 1.9825 -5.1137 30.619 -14.529 -3.6358 -91.032 50.7 106.6 -0 0 -0 -0 0 -0 -3.4134 1.9825 -5.1137 -22.745 -15.438 -14.032 93.316 72.125 -111.52 -0 0 -0 -0 0 -0 
0 95.601 0 -0 0 -0 -3.3841 2.0652 -5.2168 -1.4307 -9.6804 3.3137 -2.0631 -15.847 5.346 -1.058 -6.7679 2.3388 -0 0 -0 136.87 -46.816 48.85 23.505 0.60801 21.965 1.7075e-06 5.0889e-14 3.4151e-06 -0 0 -0 -116.65 -27.338 -53.57 -3.1153 -1.0489 -21.662 -1.7075e-06 0 0 4.8827 -8.4137 -4.4244 4.8827 -8.4137 -4.4244 -3.3841 2.0652 -5.2168 30.576 -14.5 -3.5116 -91.037 50.766 106.59 -0 0 -0 -0 0 -0 -3.3841 2.0652 -5.2168 -22.679 -15.573 -13.927 93.654 72.209 -111.78 -0 0 -0 -0 0 -0 
0 95.675 0 -0 0 -0 -3.3095 2.142 -5.1677 -1.4293 -9.5409 3.2817 -2.0676 -15.619 5.2933 -1.0557 -6.6703 2.3163 -0 0 -0 136.88 -46.185 47.924 23.723 1.5411 22.366 -1.7075e-06 0 0 -0 0 -0 -117.5 -26.862 -52.733 -3.1198 -0.26491 -22.432 -0 0 -0 4.8269 -8.8603 -4.439 4.8269 -8.8603 -4.439 -3.3095 2.142 -5.1677 30.452 -14.555 -3.4784 -90.87 50.877 106.42 -0 0 -0 -0 0 -0 -3.3095 2.142 -5.1677 -22.648 -15.631 -13.848 93.71 72.099 -111.79 -0 0 -0 -0 0 -0 
0 95.636 0 -0 0 -0 -3.2412 2.2142 -5.0061 -1.4542 -9.4027 3.24 -2.116 -15.394 5.2225 -1.0716 -6.5735 2.2874 -0 0 -0 136.77 -45.457 46.964 23.912 2.0639 23.074 -0 0 -0 -0 0 -0 -118.06 -26.293 -51.946 -3.2637 0.059701 -22.964 -0 0 3.4151e-06 4.762 -9.3313 -4.4469 4.762 -9.3313 -4.4469 -3.2412 2.2142 -5.0061 30.248 -14.633 -3.6621 -90.458 50.899 106.02 -0 0 -0 -0 0 -0 -3.2412 2.2142 -5.0061 -22.634 -15.623 -13.934 93.372 72.005 -111.4 -0 0 -0 -0 0 -0 
0 95.58 0 -0 0 -0 -3.2164 2.276 -4.9647 -1.4584 -9.2991 3.2171 -2.1277 -15.225 5.1846 -1.0735 -6.5011 2.2714 -0 0 -0 136.67 -44.775 46.197 24.014 2.3035 23.777 -0 0 -0 -0 0 -0 -118.37 -25.79 -51.324 -3.368 0.036402 -23.414 -1.7075e-06 0 0 4.7266 -9.736 -4.4141 4.7266 -9.736 -4.4141 -3.2164 2.276 -4.9647 30.062 -14.63 -3.8907 -89.931 50.795 105.56 -0 0 -0 -0 0 -0 -3.2164 2.276 -4.9647 -22.564 -15.619 -13.96 92.661 71.975 -110.62 -0 0 -0 -0 0 -0 
0 95.525 0 -0 0 -0 -3.22 2.3462 -5.014 -1.4302 -9.247 3.24 -2.0806 -15.139 5.2248 -1.0539 -6.4647 2.2868 -0 0 -0 136.68 -44.404 45.878 24.077 2.3691 24.224 -0 0 -0 -0 0 -0 -118.61 -25.453 -50.977 -3.4632 -0.03241 -23.667 -0 0 -0 4.685 -10.019 -4.414 4.685 -10.019 -4.414 -3.22 2.3462 -5.014 29.92 -14.582 -4.0191 -89.388 50.717 105.14 -0 0 -0 -0 0 -0 -3.22 2.3462 -5.014 -22.464 -15.618 -13.839 91.705 71.87 -109.49 -0 0 -0 -0 0 -0 
0 95.485 0 -0 0 -0 -3.2257 2.4319 -4.9884 -1.4302 -9.2497 3.2731 -2.0776 -15.144 5.2795 -1.0545 -6.4665 2.3099 -0 0 -0 136.94 -44.387 46.08 24.112 2.309 24.284 -1.7075e-06 0 0 -0 0 -0 -118.53 -25.199 -50.621 -3.6141 -0.20595 -23.805 -0 0 -0 4.6829 -10.174 -4.4731 4.6829 -10.174 -4.4731 -3.2257 2.4319 -4.9884 29.775 -14.577 -4.1178 -88.874 50.742 104.76 -0 0 -0 -0 0 -0 -3.2257 2.4319 -4.9884 -22.421 -15.592 -13.757 90.737 71.648 -108.41 -0 0 -0 -0 0 -0 
